<svg xmlns="http://www.w3.org/2000/svg" width="24" height="24" viewBox="0 0 24 24"><g class="nc-icon-wrapper" stroke-linecap="square" stroke-linejoin="miter" stroke-width="1" transform="translate(0.5 0.5)" fill="none" stroke="#111111" stroke-miterlimit="10"><polyline points="1,1 4,1 4,16 23,16 "></polyline> <circle stroke="#111111" cx="6" cy="21" r="2"></circle> <circle stroke="#111111" cx="21" cy="21" r="2"></circle> <line x1="4" y1="4" x2="9" y2="4"></line> <path data-cap="butt" stroke="#111111" d="M14.126,4 C14.57,2.275,16.136,1,18,1c1.48,0,2.772,0.804,3.464,1.999" stroke-linecap="butt"></path> <polygon points="23.22,0.649 22.792,5 18.522,4.061 " stroke-linejoin="miter" stroke="none" fill="#111111"></polygon> <path data-cap="butt" stroke="#111111" d="M21.874,7 c-0.444,1.725-2.01,3-3.874,3c-1.48,0-2.772-0.804-3.464-1.999" stroke-linecap="butt"></path> <polygon points="12.78,10.351 13.208,6 17.478,6.939 " stroke-linejoin="miter" stroke="none" fill="#111111"></polygon></g></svg>