<svg xmlns="http://www.w3.org/2000/svg" width="24" height="24" viewBox="0 0 24 24"><g class="nc-icon-wrapper" fill="#111111"> <path d="M11.5417 3C7.60391 3 4.32408 5.86531 3.81096 9.48755C2.16281 10.1385 1 11.7445 1 13.5882C1 16.0167 3.06041 18 5.58333 18L11.0001 18L11.0001 14H7L12 8L17 14L13.0001 14L13.0001 18H18.4167C20.9396 18 23 16.0167 23 13.5882C23 11.4278 21.3694 9.61975 19.2331 9.2469C18.5871 5.7165 15.4337 3 11.5417 3Z" fill="#111111"></path> <path fill-rule="evenodd" clip-rule="evenodd" d="M11 22L11 18L13 18L13 22L11 22Z" fill="#111111" data-color="color-2"></path> </g></svg>