<svg xmlns="http://www.w3.org/2000/svg" width="24" height="24" viewBox="0 0 24 24"><g class="nc-icon-wrapper" stroke-linecap="square" stroke-linejoin="miter" stroke-width="1" transform="translate(0.5 0.5)" fill="none" stroke="#111111" stroke-miterlimit="10"><polyline data-cap="butt" points="2 14 8 14 8 17 16 17 16 14 22 14" stroke-linecap="butt"></polyline><path d="M17,2h3a2,2,0,0,1,2,2V20a2,2,0,0,1-2,2H4a2,2,0,0,1-2-2V4A2,2,0,0,1,4,2H7"></path><line data-cap="butt" x1="12" y1="1" x2="12" y2="11" stroke-linecap="butt" stroke="#111111"></line><polyline points="16 7 12 11 8 7" stroke="#111111"></polyline></g></svg>