<svg xmlns="http://www.w3.org/2000/svg" width="24" height="24" viewBox="0 0 24 24"><line x1='0' y1='24' x2='24' y2='0' stroke-width='1' stroke='#111111'/><g class="nc-icon-wrapper" stroke-linecap="square" stroke-linejoin="miter" stroke-width="1" transform="translate(0.5 0.5)" fill="none" stroke="#111111" stroke-miterlimit="10"><polyline points="11 23 2 23 2 4 4 4"></polyline> <polyline points="20 4 22 4 22 6"></polyline> <path d="M14,3a2,2,0,0,0-4,0H7V7H17V3Z"></path> <line x1="7" y1="11" x2="12" y2="11"></line> <line x1="7" y1="15" x2="9" y2="15"></line> <line x1="7" y1="19" x2="9" y2="19"></line> <path d="M18,22.567l1.084.338a2,2,0,0,0,2.487-1.163l1.247-3.5c.875-2.456-1.549-4.824-4.209-4.113L18,14.291l-.609-.163c-2.66-.711-5.084,1.657-4.209,4.113l1.247,3.5a2,2,0,0,0,2.487,1.163Z" stroke="#111111"></path> <path d="M21,8h0a0,0,0,0,1,0,0V9a3,3,0,0,1-3,3h0a0,0,0,0,1,0,0V11A3,3,0,0,1,21,8Z" stroke="none" fill="#111111"></path></g></svg>