<svg xmlns="http://www.w3.org/2000/svg" width="16" height="16" viewBox="0 0 16 16"><g class="nc-icon-wrapper" fill="#111111"><path data-color="color-2" d="M7.5,10.5,3.414,14.586a1.415,1.415,0,0,1-2,0h0a1.415,1.415,0,0,1,0-2L5.5,8.5" fill="none" stroke="#111111" stroke-linecap="round" stroke-linejoin="round"></path> <path d="M13.9,2.1a3.752,3.752,0,0,0-5.3,0C7.134,3.563,5.5,8.5,5.5,8.5l2,2s5.183-1.88,6.4-3.1A3.752,3.752,0,0,0,13.9,2.1Z" fill="none" stroke="#111111" stroke-linecap="round" stroke-linejoin="round"></path> <path d="M6.877,9.877A65.85,65.85,0,0,0,12.25,5.75c1.464-1.464,2.2-3.1,1.652-3.652s-2.188.188-3.652,1.652A53.949,53.949,0,0,0,6.123,9.123" fill="none" stroke="#111111" stroke-linecap="round" stroke-linejoin="round"></path></g></svg>