<svg xmlns="http://www.w3.org/2000/svg" width="16" height="16" viewBox="0 0 16 16"><g class="nc-icon-wrapper" fill="#111111"><path data-color="color-2" d="M15.5,0h-5a.5.5,0,0,0-.354.854l1.793,1.792L10.293,4.293a1,1,0,1,0,1.414,1.414l1.647-1.646,1.792,1.793A.5.5,0,0,0,15.5,6a.493.493,0,0,0,.191-.038A.5.5,0,0,0,16,5.5V.5A.5.5,0,0,0,15.5,0Z" fill="#111111"></path><path d="M4.061,2.646,5.854.854A.5.5,0,0,0,5.5,0H.5A.5.5,0,0,0,0,.5v5a.5.5,0,0,0,.309.462A.493.493,0,0,0,.5,6a.5.5,0,0,0,.354-.146L2.646,4.061,7,8.414V15a1,1,0,0,0,2,0V8a1,1,0,0,0-.293-.707Z" fill="#111111"></path></g></svg>