<?xml version="1.0" encoding="UTF-8"?>
<svg width="16px" height="16px" viewBox="0 0 25 24" version="1.1" xmlns="http://www.w3.org/2000/svg" xmlns:xlink="http://www.w3.org/1999/xlink">
    <g id="My-Shopping-Help-WEEKMENU-icon" stroke="none" fill="none" transform="translate(0.5, 0)" fill-rule="evenodd">
        <path d="M6.25856354,6.21230203 C6.7667708,6.21230203 7.18907019,5.84419967 7.27541286,5.35896871 L8.10580263,5.35896871 C8.19214528,5.84419967 8.61444467,6.21230203 9.12265193,6.21230203 C9.6308592,6.21230203 10.0531586,5.84419967 10.1395013,5.35896871 L10.969891,5.35896871 C11.0562337,5.84419967 11.4785331,6.21230203 11.9867403,6.21230203 C12.4949476,6.21230203 12.917247,5.84419967 13.0035896,5.35896871 L13.8339794,5.35896871 C13.9203221,5.84419967 14.3426215,6.21230203 14.8508287,6.21230203 C15.359036,6.21230203 15.7813354,5.84419967 15.867678,5.35896871 L16.6980678,5.35896871 C16.7844105,5.84419967 17.2067099,6.21230203 17.7149171,6.21230203 C18.2231244,6.21230203 18.6454238,5.84419967 18.7317664,5.35896871 L19.5621562,5.35896871 C19.6484989,5.84419967 20.0707983,6.21230203 20.5790055,6.21230203 C20.8848674,6.21230203 21.159612,6.07896902 21.3480663,5.86628648 L21.3480663,21.4531123 C21.3480663,22.6541028 20.3744711,23.627698 19.1734807,23.627698 L4.82651934,23.627698 C3.62552885,23.627698 2.6519337,22.6541028 2.6519337,21.4531123 L2.65193372,5.89560705 C2.83943173,6.09105518 3.10280512,6.21230203 3.39447514,6.21230203 C3.90268251,6.21230203 4.32498196,5.84419952 4.41132446,5.35896871 L5.24171423,5.35896871 C5.32805688,5.84419967 5.75035627,6.21230203 6.25856354,6.21230203 Z" id="Combined-Shape" stroke="#292F56" stroke-width="0.371270718" fill="#FFFFFF"></path>
        <g id="Hand" stroke-width="1" transform="translate(5.1182, 8.8533)">
            <ellipse id="Oval" fill="#292F56" cx="6.97458564" cy="5.36" rx="5.33038674" ry="5.36"></ellipse>
            <path d="M14.2209406,3.0092577 C14.4505591,3.43049018 14.282761,3.79408033 13.7175463,4.10002813 C12.9443364,4.74931537 12.1759976,5.31243669 11.41253,5.78939209 C10.6945424,6.23793511 9.62076823,6.83523149 8.1912076,7.58128123 C8.01036845,7.67551372 7.80947612,7.72467277 7.60555833,7.72484406 L4.57696436,7.72484451 C4.09059627,7.71435627 3.70421902,7.75204549 3.4178326,7.83791217 L3.33558278,7.86433333 L2.97058278,8.04933333 L2.22558278,8.42985466 C2.23279723,8.42547359 2.23998932,8.42111495 2.24715906,8.41677875 L2.22762431,8.42666667 L2.22558278,4.73187686 C2.80281289,4.25240916 3.30179152,3.94646136 3.72251866,3.81403344 C4.14324581,3.68160553 4.79235959,3.6261802 5.66986003,3.64775746 L8.35242211,3.64775746 C8.85140074,3.64775746 9.10089005,3.90714799 9.10089005,4.42592905 C9.10089005,4.7062997 9.02802004,4.91155596 8.88228003,5.04169784 L9.60428442,4.6720175 C10.4273999,4.30524717 11.0301484,4.02812053 11.41253,3.8406376 C11.7949115,3.65315466 12.3225925,3.37602803 12.9955728,3.0092577 C13.5828662,2.58802521 13.9913222,2.58802521 14.2209406,3.0092577 Z M8.35242211,5.21075168 L5.66986003,5.21075168 L8.25458278,5.35833333 L8.60806317,5.1808145 C8.53171931,5.19993657 8.44650562,5.20991563 8.35242211,5.21075168 Z" id="Combined-Shape" fill="#FFFFFF" stroke-linecap="round"></path>
            <rect id="Rectangle" stroke="#292F56" stroke-width="0.371270718" fill="#4BBC23" x="-0.185635359" y="4.25359577" width="2.38484818" height="5.71870626" rx="0.159116015"></rect>
            <ellipse id="Oval" fill="#FFFFFF" cx="1.00773481" cy="9.33333333" rx="1" ry="1"></ellipse>
            <path d="M2.22558278,4.73187686 C2.80281289,4.25240916 3.30179152,3.94646136 3.72251866,3.81403344 C4.14324581,3.68160553 4.79235959,3.6261802 5.66986003,3.64775746 L8.35242211,3.64775746 C8.85140074,3.64775746 9.10089005,3.90714799 9.10089005,4.42592905 C9.10089005,4.94471011 8.85140074,5.20631765 8.35242211,5.21075168 L5.66986003,5.21075168" id="Path-2" stroke="#292F56" stroke-width="0.371270718" stroke-linecap="round"></path>
            <path d="M9.10276243,4.82 C10.2602259,4.35457467 11.0301484,4.02812053 11.41253,3.8406376 C11.7949115,3.65315466 12.3225925,3.37602803 12.9955728,3.0092577 C13.5828662,2.58802521 13.9913222,2.58802521 14.2209406,3.0092577 C14.4505591,3.43049018 14.282761,3.79408033 13.7175463,4.10002813 C12.9443364,4.74931537 12.1759976,5.31243669 11.41253,5.78939209 C10.6945424,6.23793511 9.62076823,6.83523149 8.1912076,7.58128123 L8.19132395,7.58150518 C8.01036845,7.67551372 7.80947612,7.72467277 7.60555833,7.72484406 L4.57696436,7.72484451 L4.57696436,7.72484451 C4.09059627,7.71435627 3.70421902,7.75204549 3.4178326,7.83791217 C3.13144618,7.92377886 2.73402957,8.12109302 2.22558278,8.42985466" id="Path-3" stroke="#292F56" stroke-width="0.371270718" stroke-linecap="round"></path>
        </g>
        <rect id="Rectangle" fill="#292F56" x="2.46629834" y="0.16" width="19.0674033" height="4.66666667"></rect>
        <ellipse id="Oval-Copy" stroke="#FFFFFF" stroke-width="0.371270718" fill="#FFFFFF" cx="11.9867403" cy="5.17333333" rx="1" ry="1"></ellipse>
        <ellipse id="Oval-Copy-2" stroke="#FFFFFF" stroke-width="0.371270718" fill="#FFFFFF" cx="14.8508287" cy="5.17333333" rx="1" ry="1"></ellipse>
        <ellipse id="Oval-Copy-3" stroke="#FFFFFF" stroke-width="0.371270718" fill="#FFFFFF" cx="17.7149171" cy="5.17333333" rx="1" ry="1"></ellipse>
        <ellipse id="Oval-Copy-4" stroke="#FFFFFF" stroke-width="0.371270718" fill="#FFFFFF" cx="20.5790055" cy="5.17333333" rx="1" ry="1"></ellipse>
        <ellipse id="Oval-Copy-5" stroke="#FFFFFF" stroke-width="0.371270718" fill="#FFFFFF" cx="9.12265193" cy="5.17333333" rx="1" ry="1"></ellipse>
        <ellipse id="Oval-Copy-6" stroke="#FFFFFF" stroke-width="0.371270718" fill="#FFFFFF" cx="6.25856354" cy="5.17333333" rx="1" ry="1"></ellipse>
        <ellipse id="Oval-Copy-7" stroke="#FFFFFF" stroke-width="0.371270718" fill="#FFFFFF" cx="3.39447514" cy="5.17333333" rx="1" ry="1"></ellipse>
    </g>
</svg>