<svg xmlns="http://www.w3.org/2000/svg" width="16" height="16" viewBox="0 0 24 24"><g class="nc-icon-wrapper" fill="#111111" stroke-linecap="square" stroke-linejoin="miter" transform="translate(0.5 0.5)" stroke-miterlimit="10"><line data-color="color-2" x1="6" y1="1" x2="6" y2="3" fill="none" stroke="#111111" stroke-width="1"></line><line data-color="color-2" x1="18" y1="1" x2="18" y2="3" fill="none" stroke="#111111" stroke-width="1"></line><rect data-color="color-2" x="5" y="12" width="2" height="1" fill="none" stroke="#111111" stroke-width="1"></rect><rect data-color="color-2" x="11" y="12" width="2" height="1" fill="none" stroke="#111111" stroke-width="1"></rect><rect data-color="color-2" x="5" y="17" width="2" height="1" fill="none" stroke="#111111" stroke-width="1"></rect><rect data-color="color-2" x="11" y="17" width="2" height="1" fill="none" stroke="#111111" stroke-width="1"></rect><rect data-color="color-2" x="17" y="12" width="2" height="1" fill="none" stroke="#111111" stroke-width="1"></rect><rect data-color="color-2" data-stroke="none" x="5" y="12" width="2" height="1" fill="#111111" stroke="none"></rect><rect data-color="color-2" data-stroke="none" x="11" y="12" width="2" height="1" fill="#111111" stroke="none"></rect><rect data-color="color-2" data-stroke="none" x="5" y="17" width="2" height="1" fill="#111111" stroke="none"></rect><rect data-color="color-2" data-stroke="none" x="11" y="17" width="2" height="1" fill="#111111" stroke="none"></rect><rect data-color="color-2" data-stroke="none" x="17" y="12" width="2" height="1" fill="#111111" stroke="none"></rect><line x1="1" y1="8" x2="23" y2="8" fill="none" stroke="#111111" stroke-width="1"></line><rect x="1" y="4" width="22" height="18" rx="2" ry="2" fill="none" stroke="#111111" stroke-width="1"></rect></g></svg>